<svg width="46" height="58" viewBox="0 0 46 58" fill="none" xmlns="http://www.w3.org/2000/svg">
<mask id="mask0_1_120" style="mask-type:luminance" maskUnits="userSpaceOnUse" x="0" y="0" width="46" height="58">
<path d="M0 0.853516H45.06V57.6175H0V0.853516Z" fill="white"/>
</mask>
<g mask="url(#mask0_1_120)">
<path d="M29.5621 40.3133V50.0297C37.7303 50.0297 44.4206 44.4804 44.9086 37.4781H32.8375C31.0264 37.4781 29.5621 38.7493 29.5621 40.3133ZM29.5621 10.0126V24.4416H4.11213C1.84009 24.4416 0 26.041 0 28.0159V57.5524L10.2582 54.5974C13.3109 53.712 15.3601 51.2404 15.3601 48.4421V35.4189H40.8101C43.0822 35.4189 44.9222 33.8194 44.9222 31.8445V0.914062L34.664 3.85869C31.625 4.74268 29.5621 7.21427 29.5621 10.0126ZM15.3601 10.3999C7.30422 10.3999 0.683655 15.8161 0.0561209 22.6854H12.1119C13.9095 22.6854 15.3737 21.4127 15.3737 19.8502V10.3999H15.3601Z" fill="white"/>
</g>
</svg>
