<svg width="63" height="81" viewBox="0 0 63 81" fill="none" xmlns="http://www.w3.org/2000/svg">
<path d="M41.3319 55.9861V69.571C52.752 69.571 62.106 61.8123 62.7884 52.0221H45.9113C43.3791 52.0221 41.3319 53.7995 41.3319 55.9861ZM41.3319 13.6216V33.7953H5.74932C2.57269 33.7953 0 36.0315 0 38.7927V80.0887L14.3424 75.9573C18.6104 74.7193 21.4755 71.2636 21.4755 67.3513V49.1431H57.0581C60.2347 49.1431 62.8074 46.9068 62.8074 44.1456V0.900635L48.465 5.01763C44.216 6.25356 41.3319 9.70919 41.3319 13.6216ZM21.4755 14.1631C10.2123 14.1631 0.955842 21.7357 0.0784647 31.3399H16.9341C19.4473 31.3399 21.4946 29.5605 21.4946 27.3759V14.1631H21.4755Z" fill="white"/>
</svg>
